<svg viewBox="0 0 200 200" width="200" xmlns="http://www.w3.org/2000/svg" version="1.1" height="200">
<path d="m99.445 2.964c-53.966 0-97.714 36.328-97.714 81.141 0 30.271 19.963 56.667 49.552 70.613 3.931 1.853 5.231 6.815 2.787 10.408l-12.438 18.281c-0.82 1.206 0.422 2.743 1.773 2.194l44.601-18.131c3.615-1.47 7.48-2.225 11.383-2.224h0.057c53.966 0 97.714-36.328 97.714-81.141s-43.75-81.145-97.715-81.145z" fill="#005"/>
<path d="m56.231 64.33v42.382c0 1.48-0.182 2.397-0.7 2.952-0.252 0.27-0.694 0.153-0.803-0.2-1.379-4.483-5.543-7.746-10.479-7.746-5.117 0-9.414 3.503-10.629 8.241-0.073 0.283-0.318 0.486-0.611 0.486h-4.908c-2.858 0-3.507-0.311-3.629-2.699-0.012-0.24-0.206-0.433-0.446-0.433h-0.858c-0.359 0-0.65-0.291-0.65-0.65v-3.638c0-0.359 0.291-0.65 0.65-0.65h0.819c0.259 0 0.469-0.21 0.469-0.469v-18.092c0.01-1.056 0.593-2.059 1.384-2.759l16.638-19.513c0.683-0.605 1.563-0.939 2.475-0.939h7.545c2.062 0 3.733 1.671 3.733 3.733zm-2.991-14.547l-5.992 7.812c-0.349 0.455-0.025 1.114 0.549 1.114h7.154c0.382 0 0.692-0.31 0.692-0.692v-8.07c0-0.443-0.41-0.772-0.842-0.676l-1.162 0.258c-0.158 0.035-0.3 0.125-0.399 0.254zm-9.219 14.872l-11.857 14.387c-0.455 0.52-0.086 1.333 0.605 1.333h10.197c0.441 0 0.87-0.138 1.228-0.395l6.665-4.79c0.493-0.354 0.785-0.924 0.785-1.531v-9.346c0-0.518-0.42-0.938-0.938-0.938h-4.064c-1.024 0-1.992 0.472-2.621 1.28zm8.787 48.035c0 4.726-3.831 8.558-8.558 8.558s-8.558-3.831-8.558-8.558 3.831-8.558 8.558-8.558 8.558 3.84 8.558 8.56zm-4.417 0c0-2.287-1.854-4.141-4.141-4.141s-4.141 1.854-4.141 4.141c0 2.287 1.854 4.141 4.141 4.141s4.141-1.85 4.141-4.14zm116.15-68.357h-103.92c-1.688 0-2.311 0.917-2.311 2.354v62.302c0 0.8 0.655 1.454 1.454 1.454h80.135c0.618 0 1.175-0.394 1.357-0.985 1.38-4.483 5.553-7.742 10.489-7.742 4.986 0 9.194 3.326 10.53 7.879 0.15 0.511 0.64 0.848 1.173 0.848h2.16c0.8 0 1.454-0.654 1.454-1.454v-62c0.01-1.75-0.68-2.667-2.52-2.667zm-4.23 68.357c0 4.726-3.831 8.558-8.558 8.558s-8.558-3.831-8.558-8.558 3.831-8.558 8.558-8.558 8.56 3.84 8.56 8.56zm-4.42 0c0-2.287-1.854-4.141-4.141-4.141s-4.141 1.854-4.141 4.141c0 2.287 1.854 4.141 4.141 4.141s4.14-1.85 4.14-4.14z" fill="#fff"/>
</svg>
