<svg viewBox="0 0 200 200" width="200" xmlns="http://www.w3.org/2000/svg" version="1.1" height="200">
<path d="m99.445 2.964c-53.966 0-97.714 36.328-97.714 81.141 0 30.271 19.963 56.667 49.552 70.613 3.931 1.853 5.231 6.815 2.787 10.408l-12.438 18.281c-0.82 1.206 0.422 2.743 1.773 2.194l44.601-18.131c3.615-1.47 7.48-2.225 11.383-2.224h0.057c53.966 0 97.714-36.328 97.714-81.141s-43.75-81.145-97.715-81.145z" fill="#11b000"/>
<path fill="#fff" d="M65.657,52.444l0.935-0.208c0.348-0.077,0.678,0.188,0.678,0.544v6.498c0,0.308-0.25,0.557-0.557,0.557h-5.76c-0.462,0-0.723-0.53-0.442-0.897l4.825-6.29C65.415,52.545,65.529,52.472,65.657,52.444z M58.097,95.098c3.548,0,6.659,1.861,8.417,4.658c0.425,0.677,0.489,0.795,0.636,0.978c0.237,0.296,0.594,0.227,0.594-0.509V66.101c0-1.66-1.346-3.006-3.006-3.006h-6.075c-0.734,0-1.443,0.269-1.993,0.756L43.274,79.562c-0.637,0.564-1.106,1.371-1.114,2.222v14.572c0,0.209-0.169,0.378-0.378,0.378h-0.66c-0.289,0-0.523,0.234-0.523,0.523v2.929c0,0.289,0.234,0.523,0.523,0.523h0.691c0.193,0,0.349,0.155,0.359,0.349c0.098,1.923,0.621,2.173,2.922,2.173h3.231C49.178,98.605,53.224,95.098,58.097,95.098z M60.947,65.332h1.636c0.417,0,0.755,0.338,0.755,0.755v7.525c0,0.489-0.235,0.948-0.632,1.233l-5.366,3.857c-0.288,0.207-0.634,0.318-0.989,0.318h-6.575c-0.556,0-0.853-0.655-0.487-1.073l9.547-11.584C59.344,65.712,60.122,65.332,60.947,65.332z M58.097,98.467c-3.631,0-6.574,2.943-6.574,6.574s2.943,6.574,6.574,6.574s6.574-2.943,6.574-6.574S61.728,98.467,58.097,98.467z M60.799,105.041c0,1.492-1.21,2.702-2.702,2.702s-2.702-1.21-2.702-2.702s1.21-2.702,2.702-2.702S60.799,103.549,60.799,105.041z M155.816,50H72.331c-0.644,0-1.171,0.527-1.171,1.171v50.889c0,0.644,0.527,1.171,1.171,1.171h59.116c0.929,0,1.716-0.617,2.024-1.493c1.361-3.867,5.04-6.64,9.373-6.64c4.348,0,8.038,2.793,9.387,6.681c0.296,0.854,1.063,1.453,1.967,1.453h1.616c0.644,0,1.171-0.527,1.171-1.171V51.171C156.987,50.527,156.46,50,155.816,50z M142.845,98.467c-3.631,0-6.574,2.943-6.574,6.574s2.943,6.574,6.574,6.574s6.574-2.943,6.574-6.574S146.476,98.467,142.845,98.467z M145.547,105.041c0,1.492-1.21,2.702-2.702,2.702s-2.702-1.21-2.702-2.702s1.21-2.702,2.702-2.702S145.547,103.549,145.547,105.041z"/>
</svg>
