<svg viewBox="0 0 200 200" width="200" xmlns="http://www.w3.org/2000/svg" version="1.1" height="200">
<path d="m166.59 8h-131.84c-16.431 0-29.872 13.441-29.872 29.87v83.772c0 16.428 13.441 29.87 29.87 29.87h8.667c4.28 0 7.211 4.317 5.633 8.295l-12.009 30.263c-0.293 0.739 0.541 1.416 1.203 0.976l47.585-31.532c7.875-5.219 17.114-8.002 26.561-8.002h54.199c16.428 0 29.87-13.441 29.87-29.87v-83.77c0-16.429-13.45-29.87-29.87-29.87z" fill="#11b000"/>
<path fill="#fff" d="M61.102,48.545l1.064-0.236c0.396-0.088,0.772,0.213,0.772,0.619v7.391c0,0.35-0.284,0.634-0.634,0.634h-6.552c-0.526,0-0.823-0.603-0.503-1.02l5.488-7.154C60.827,48.66,60.956,48.577,61.102,48.545z M52.502,97.062c4.036,0,7.574,2.116,9.574,5.299c0.484,0.77,0.556,0.904,0.723,1.113c0.27,0.337,0.676,0.258,0.676-0.579V64.079c0-1.888-1.531-3.419-3.419-3.419h-6.91c-0.835,0-1.642,0.306-2.267,0.86L35.641,79.391c-0.724,0.642-1.258,1.56-1.267,2.527v16.575c0,0.237-0.192,0.429-0.429,0.429h-0.75c-0.329,0-0.595,0.266-0.595,0.595v3.332c0,0.329,0.266,0.595,0.595,0.595h0.786c0.22,0,0.397,0.177,0.409,0.396c0.112,2.187,0.707,2.472,3.324,2.472h3.676C42.357,101.052,46.96,97.062,52.502,97.062z M55.745,63.205h1.861c0.474,0,0.859,0.384,0.859,0.859v8.559c0,0.556-0.268,1.078-0.719,1.402l-6.104,4.387c-0.328,0.236-0.721,0.362-1.125,0.362h-7.479c-0.632,0-0.97-0.745-0.554-1.221l10.859-13.176C53.921,63.637,54.806,63.205,55.745,63.205z M52.502,100.895c-4.13,0-7.478,3.348-7.478,7.478c0,4.13,3.348,7.478,7.478,7.478s7.478-3.348,7.478-7.478C59.98,104.243,56.632,100.895,52.502,100.895z M55.576,108.373c0,1.697-1.376,3.073-3.073,3.073c-1.697,0-3.073-1.376-3.073-3.073c0-1.697,1.376-3.073,3.073-3.073C54.2,105.299,55.576,106.675,55.576,108.373z M163.655,45.765H68.694c-0.733,0-1.332,0.599-1.332,1.332v57.885c0,0.733,0.599,1.332,1.332,1.332h67.243c1.057,0,1.952-0.702,2.303-1.699c1.548-4.399,5.733-7.553,10.662-7.553c4.945,0,9.143,3.176,10.678,7.599c0.337,0.971,1.21,1.652,2.237,1.652h1.839c0.733,0,1.332-0.599,1.332-1.332V47.097C164.987,46.364,164.388,45.765,163.655,45.765z M148.901,100.895c-4.13,0-7.478,3.348-7.478,7.478c0,4.13,3.348,7.478,7.478,7.478c4.13,0,7.478-3.348,7.478-7.478C156.379,104.243,153.031,100.895,148.901,100.895z M151.975,108.373c0,1.697-1.376,3.073-3.073,3.073c-1.697,0-3.073-1.376-3.073-3.073c0-1.697,1.376-3.073,3.073-3.073C150.599,105.299,151.975,106.675,151.975,108.373z"/>
</svg>
